<svg xmlns="http://www.w3.org/2000/svg" width="114.09" height="75.55" viewBox="0 0 114.09 75.55">
  <path d="M27.79,47.45a3.37,3.37,0,0,1-.55,0c-4-.59-7.11,1.24-9.89,3.86C16,52.55,14.67,53.82,13.26,55a9.34,9.34,0,0,1-2.57,1.57,3.45,3.45,0,0,1-4.85-2.93,4.57,4.57,0,0,0-2.34-4A3.66,3.66,0,0,1,2,45c.11-.35.25-.69.33-1a4.12,4.12,0,0,0-.83-3.88A6.86,6.86,0,0,1,.67,39a3.71,3.71,0,0,1,.64-5A3.76,3.76,0,0,0,2.9,30.43a3,3,0,0,1,.26-1.34A3,3,0,0,1,7,26.89a10.73,10.73,0,0,1,4.39,2.21c1.52,1.2,3,2.45,4.54,3.6a42.41,42.41,0,0,0,3.68,2.42,5.94,5.94,0,0,0,3.71.82c.61-.06,1.55-.07,1.75-.42.44-.82-.61-.91-1.05-1.26-2-1.59-2.42-3.07-1.14-5.24a10.32,10.32,0,0,0,1.2-3A3.18,3.18,0,0,1,28,23.32c3,.31,5.77,1.2,7.79,3.64.53.64,1.08,1.26,1.62,1.88.85,1,1.08,1,2,.31.29-.22.55-.49.83-.72a1.15,1.15,0,0,0,.16-1.88,4.48,4.48,0,0,1-.31-5.41A5.48,5.48,0,0,1,42.14,19a10.43,10.43,0,0,0,4.64-5.59C48.67,9,48.94,8.77,53.69,8.57a4.05,4.05,0,0,0,3.5-1.8c.2-.31.44-.59.64-.9A5.46,5.46,0,0,1,64.52,3.4c2.36.76,3.77.25,5-1.92.88-1.6,2.4-1.85,4-1a10.35,10.35,0,0,1,2,1.44c.63.53,1.2,1.14,1.8,1.71a3.11,3.11,0,0,0,3.5.92,4.56,4.56,0,0,1,.81-.2c2-.38,2.87,0,3.7,1.91a21,21,0,0,1,1,3.42,9,9,0,0,1,.11,1.65l.15,4.36c1.34.57,2.7,1.09,4,1.71a64,64,0,0,1,16.1,10.53A76.51,76.51,0,0,1,113,34.48c1.42,1.65,1.32,2.89.15,4.78a1.12,1.12,0,0,1-.18.21c-.71.66-.44,1.13.11,1.83,1.34,1.74.88,3.3-1.09,4.18a5.17,5.17,0,0,1-1,.37,30.49,30.49,0,0,0-8,3c-3.64,1.82-7.61,2.7-11.52,3.71S83.83,54.48,80,55.4a2.35,2.35,0,0,0-2,1.71c-.36,1.32-.76,2.64-1,4-.4,1.89-.61,3.81-1.09,5.68-.86,3.39-3.15,5.76-6,7.65A5.72,5.72,0,0,1,66,75.52,4.7,4.7,0,0,1,61.63,71,13.08,13.08,0,0,0,59,62.49c-.77-1-.35-2.13.52-3,.65-.65,1.39-1.2,2-1.84.34-.33.2-.7-.24-.81a8.28,8.28,0,0,0-1.89-.35,18.69,18.69,0,0,1-6.66-1.6c-1.36-.56-2.73-1.11-4.1-1.63-1.8-.67-1.8-.65-2.14,1.11a16.72,16.72,0,0,1-.63,3C45,59.65,44,61.91,43,64.18a2.33,2.33,0,0,1-2,1.34c-3.12.46-5.89-.25-7.91-2.8a43.71,43.71,0,0,0-3.93-4.59c-1.82-1.75-1.68-3.17.16-4.94,1.26-1.21,2.57-2.37,3.78-3.63a2.19,2.19,0,0,0,.49-1.42c0-.18-.73-.45-1.14-.49-1.56-.13-3.12-.18-4.68-.26Z" fill="#ea580c"/>
</svg>
